<svg xmlns="http://www.w3.org/2000/svg" style="display: none;">
  
    <symbol id="icon-bars" viewBox="0 0 512 512">
      <path d="m475 384l0 37c0 5-1 9-5 12-4 4-8 6-13 6l-402 0c-5 0-9-2-13-6-4-3-5-7-5-12l0-37c0-5 1-9 5-13 4-3 8-5 13-5l402 0c5 0 9 2 13 5 4 4 5 8 5 13z m0-146l0 36c0 5-1 10-5 13-4 4-8 6-13 6l-402 0c-5 0-9-2-13-6-4-3-5-8-5-13l0-36c0-5 1-10 5-13 4-4 8-6 13-6l402 0c5 0 9 2 13 6 4 3 5 8 5 13z m0-147l0 37c0 5-1 9-5 13-4 3-8 5-13 5l-402 0c-5 0-9-2-13-5-4-4-5-8-5-13l0-37c0-5 1-9 5-12 4-4 8-6 13-6l402 0c5 0 9 2 13 6 4 3 5 7 5 12z"/>
    </symbol>
  
    <symbol id="icon-twitter" viewBox="0 0 512 512">
      <path d="m481 117c-13 18-28 34-46 47 0 3 0 7 0 12 0 25-3 50-11 74-7 25-18 49-33 71-14 23-32 43-52 61-21 17-45 31-74 41-29 11-60 16-92 16-52 0-99-14-142-42 7 1 14 2 22 2 43 0 81-14 115-40-20 0-38-6-54-18-16-12-27-27-33-46 7 1 13 2 18 2 8 0 16-1 24-4-21-4-39-15-53-31-14-17-21-37-21-59l0-1c13 7 27 11 42 11-13-8-23-19-30-32-8-14-11-29-11-44 0-17 4-33 12-47 23 28 51 51 84 68 33 17 69 27 107 29-2-8-3-15-3-22 0-25 9-47 27-65 18-18 40-27 66-27 26 0 49 10 67 29 21-4 40-11 59-22-7 22-21 39-41 51 18-2 35-7 53-14z"/>
    </symbol>
  
    <symbol id="icon-facebook" viewBox="0 0 512 512">
      <path d="m384 3l0 76-45 0c-17 0-28 3-33 10-6 7-9 17-9 31l0 54 84 0-11 85-73 0 0 216-87 0 0-216-73 0 0-85 73 0 0-62c0-36 10-63 29-83 20-19 47-29 80-29 28 0 49 1 65 3z"/>
    </symbol>
  
    <symbol id="icon-instagram" viewBox="0 0 512 512">
      <path d="m426 407l0-185-39 0c4 12 6 25 6 38 0 24-6 46-18 66-13 20-29 36-50 48-21 12-44 18-69 18-37 0-69-13-96-39-27-26-40-57-40-93 0-13 2-26 6-38l-41 0 0 185c0 5 2 10 5 13 4 3 8 5 13 5l305 0c5 0 9-2 13-5 3-3 5-8 5-13z m-81-152c0-23-9-44-26-60-18-17-38-25-63-25-24 0-45 8-62 25-17 16-26 37-26 60 0 24 9 44 26 61 17 16 38 25 62 25 25 0 45-9 63-25 17-17 26-37 26-61z m81-103l0-47c0-5-2-10-6-14-4-4-8-6-14-6l-50 0c-5 0-10 2-14 6-4 4-5 9-5 14l0 47c0 6 1 10 5 14 4 4 9 6 14 6l50 0c6 0 10-2 14-6 4-4 6-8 6-14z m49-59l0 326c0 16-5 29-16 40-11 11-24 16-40 16l-326 0c-16 0-29-5-40-16-11-11-16-24-16-40l0-326c0-16 5-29 16-40 11-11 24-16 40-16l326 0c16 0 29 5 40 16 11 11 16 24 16 40z"/>
    </symbol>
  
    <symbol id="icon-angle-right" viewBox="0 0 512 512">
      <path d="m335 274c0 3-1 5-3 7l-133 133c-2 2-5 3-7 3-2 0-5-1-7-3l-14-14c-2-2-3-4-3-7 0-2 1-5 3-6l112-113-112-112c-2-2-3-4-3-7 0-2 1-4 3-6l14-14c2-2 5-3 7-3 2 0 5 1 7 3l133 133c2 2 3 4 3 6z"/>
    </symbol>
  
    <symbol id="icon-angle-left" viewBox="0 0 512 512">
      <path d="m344 155c0 3-1 5-3 7l-112 112 112 113c2 1 3 4 3 6 0 3-1 5-3 7l-14 14c-2 2-5 3-7 3-2 0-5-1-7-3l-133-133c-2-2-3-4-3-7 0-2 1-4 3-6l133-133c2-2 5-3 7-3 2 0 5 1 7 3l14 14c2 2 3 4 3 6z"/>
    </symbol>
  
    <symbol id="icon-angle-down" viewBox="0 0 512 512">
      <path d="m399 210c0 3-1 5-3 7l-133 133c-2 2-5 3-7 3-2 0-5-1-7-3l-133-133c-2-2-3-4-3-7 0-2 1-4 3-6l15-15c1-1 4-2 6-2 3 0 5 1 7 2l112 113 112-113c2-1 4-2 7-2 2 0 5 1 6 2l15 15c2 2 3 4 3 6z"/>
    </symbol>
  
    <symbol id="icon-youtube" viewBox="0 0 512 512">
      <path d="m314 355l0 61c0 12-4 19-11 19-5 0-9-2-13-6l0-86c4-5 8-7 13-7 7 0 11 7 11 19z m97 1l0 13-26 0 0-13c0-13 4-20 13-20 8 0 13 7 13 20z m-276-63l30 0 0-26-89 0 0 26 30 0 0 163 29 0z m82 163l25 0 0-141-25 0 0 108c-6 8-11 12-16 12-4 0-6-2-6-6-1-1-1-4-1-10l0-104-25 0 0 112c0 9 1 16 2 20 2 7 8 11 17 11 9 0 19-6 29-17z m122-42l0-57c0-13 0-23-2-28-3-11-10-16-20-16-10 0-19 5-27 16l0-62-25 0 0 189 25 0 0-14c9 11 17 16 27 16 10 0 17-5 20-16 2-5 2-14 2-28z m97-3l0-4-26 0c0 10 0 16-1 18-1 6-5 10-11 10-9 0-13-7-13-20l0-25 51 0 0-29c0-15-3-26-8-33-7-10-17-15-30-15-13 0-23 5-31 15-5 7-8 18-8 33l0 49c0 15 3 26 9 33 7 10 17 15 31 15 13 0 24-5 30-15 4-5 6-10 6-16 1-1 1-7 1-16z m-174-261l0-60c0-13-4-20-12-20-8 0-12 7-12 20l0 60c0 13 4 20 12 20 8 0 12-7 12-20z m206 215c0 44-3 77-8 100-2 11-8 20-16 28-9 7-18 12-29 13-35 4-88 6-159 6-71 0-124-2-159-6-11-1-20-6-29-13-8-8-14-17-16-28-5-22-8-55-8-100 0-45 3-78 8-100 2-12 8-21 16-29 9-7 18-12 30-13 35-4 87-6 158-6 71 0 124 2 159 6 11 1 20 6 29 13 8 8 14 17 16 29 5 21 8 54 8 100z m-285-365l29 0-35 114 0 77-28 0 0-77c-3-14-9-34-18-61-7-19-13-37-18-53l30 0 20 75z m105 95l0 50c0 16-2 27-8 34-7 10-17 14-30 14-13 0-23-4-30-14-5-7-8-19-8-34l0-50c0-15 3-26 8-33 7-10 17-15 30-15 13 0 23 5 30 15 6 7 8 18 8 33z m96-46l0 142-26 0 0-15c-10 12-20 17-29 17-9 0-15-3-17-10-2-5-3-12-3-22l0-112 26 0 0 105c0 6 1 9 1 10 0 4 2 6 6 6 5 0 10-4 16-12l0-109z"/>
    </symbol>
  
    <symbol id="icon-times" viewBox="0 0 512 512">
      <path d="m426 378c0 7-3 14-8 19l-39 39c-5 5-12 8-20 8-7 0-14-3-19-8l-84-84-84 84c-5 5-12 8-19 8-8 0-15-3-20-8l-39-39c-5-5-8-12-8-19 0-8 3-14 8-20l84-84-84-84c-5-5-8-12-8-19 0-8 3-14 8-20l39-38c5-6 12-8 20-8 7 0 14 2 19 8l84 84 84-84c5-6 12-8 19-8 8 0 15 2 20 8l39 38c5 6 8 12 8 20 0 7-3 14-8 19l-84 84 84 84c5 6 8 12 8 20z"/>
    </symbol>
  
    <symbol id="icon-spin-alt" viewBox="0 0 512 512">
      <path d="m75 437c-48-48-75-113-75-181c0-141 115-256 256-256l32 32l-32 32c-106 0-192 86-192 192c0 51 20 100 56 136l-39 5z m181 75l-32-32l32-32c106 0 192-86 192-192c0-51-20-100-56-136l39-5l6-40c48 48 75 113 75 181c0 141-115 256-256 256z"/>
    </symbol>
  
</svg>
